<svg xmlns="http://www.w3.org/2000/svg" viewBox="0 0 800 600">
  <rect width="800" height="600" fill="#FFEFD2"/>
  <circle cx="650" cy="125" r="64" fill="#FFD66B" stroke="#B86B3A" stroke-width="8"/>
  <g stroke="#B86B3A" stroke-width="8" stroke-linecap="round">
    <line x1="650" y1="28" x2="650" y2="8"/>
    <line x1="650" y1="222" x2="650" y2="202"/>
    <line x1="553" y1="125" x2="533" y2="125"/>
    <line x1="747" y1="125" x2="727" y2="125"/>
    <line x1="582" y1="57" x2="568" y2="43"/>
    <line x1="718" y1="193" x2="704" y2="179"/>
    <line x1="718" y1="57" x2="704" y2="43"/>
    <line x1="582" y1="193" x2="568" y2="179"/>
  </g>

  <g fill="#FFFFFF" opacity="0.75" stroke="#B86B3A" stroke-width="5" stroke-linecap="round" stroke-linejoin="round">
    <path d="M95 145 C122 112 170 119 186 153 C218 149 240 169 240 194 C240 222 214 235 184 228 L88 228 C58 228 39 210 42 185 C45 158 68 143 95 145 Z"/>
    <path d="M118 145 C136 134 162 137 176 156" fill="none"/>
  </g>

  <path d="M0 432 C118 396 244 435 356 408 C507 372 637 404 800 366 L800 600 L0 600 Z" fill="#BDE7A8"/>
  <path d="M0 492 C130 458 283 494 421 466 C570 436 681 464 800 441 L800 600 L0 600 Z" fill="#91D58A"/>

  <g stroke="#5C2F2F" stroke-width="8" stroke-linecap="round" stroke-linejoin="round">
    <path d="M344 376 C314 423 314 492 353 523 C391 552 466 552 503 523 C542 492 540 423 510 376 Z" fill="#E84C43"/>
    <path d="M363 514 C342 538 309 545 280 528" fill="none"/>
    <path d="M499 510 C521 535 555 540 584 520" fill="none"/>
    <path d="M372 517 C362 548 338 566 310 568" fill="#E84C43"/>
    <path d="M478 517 C490 548 512 565 540 568" fill="#E84C43"/>

    <path d="M326 360 C296 348 279 318 288 287 C301 242 342 219 386 230 C402 207 450 207 465 230 C509 218 552 242 565 287 C574 318 557 348 527 360 C508 405 479 428 424 429 C370 428 340 405 326 360 Z" fill="#E84C43"/>
    <path d="M339 251 L318 184 L383 223 Z" fill="#E84C43"/>
    <path d="M513 251 L534 184 L470 223 Z" fill="#E84C43"/>
    <path d="M343 225 L329 194 L361 215 Z" fill="#F79A8E" stroke-width="5"/>
    <path d="M510 225 L523 194 L492 215 Z" fill="#F79A8E" stroke-width="5"/>

    <path d="M362 211 C370 163 404 135 449 143 C493 151 518 185 511 233 C476 220 400 220 362 211 Z" fill="#D83A35"/>
    <path d="M360 213 C401 195 466 196 516 224" fill="#F15B4F"/>
    <path d="M362 211 C379 180 426 168 471 183" fill="#F15B4F" stroke-width="6"/>

    <circle cx="378" cy="304" r="13" fill="#fff7e8"/>
    <circle cx="474" cy="304" r="13" fill="#fff7e8"/>
    <circle cx="378" cy="306" r="6" fill="#5C2F2F" stroke="none"/>
    <circle cx="474" cy="306" r="6" fill="#5C2F2F" stroke="none"/>
    <path d="M426 332 C417 332 412 338 418 345 C422 351 430 351 434 345 C440 338 435 332 426 332 Z" fill="#5C2F2F"/>
    <path d="M390 357 C405 386 447 386 462 357" fill="none"/>

    <path d="M342 340 C316 331 296 330 272 336" fill="none"/>
    <path d="M344 363 C319 363 299 371 278 384" fill="none"/>
    <path d="M508 340 C534 331 555 330 579 336" fill="none"/>
    <path d="M506 363 C531 363 552 371 573 384" fill="none"/>

    <path d="M335 417 C287 414 257 450 266 490 C273 522 309 536 353 523" fill="#E84C43"/>
    <path d="M329 446 C306 447 293 465 297 486" fill="none"/>

    <path d="M509 407 C545 380 573 337 566 304 C562 284 547 273 531 282 C512 293 518 324 537 338" fill="#E84C43"/>
    <path d="M542 276 C560 245 597 238 619 260 C643 287 625 326 590 335" fill="#E84C43"/>
    <path d="M610 260 C626 242 652 243 665 260 C677 276 672 297 655 308" fill="#E84C43"/>
    <path d="M535 338 C559 353 588 352 610 335" fill="none"/>
    <path d="M615 282 C631 286 643 294 655 308" fill="none"/>
  </g>

  <g fill="#F7B7AC" stroke="#5C2F2F" stroke-width="6" stroke-linecap="round" stroke-linejoin="round">
    <circle cx="343" cy="326" r="12"/>
    <circle cx="509" cy="326" r="12"/>
  </g>

  <g fill="#FFFFFF" opacity="0.8" stroke="#B86B3A" stroke-width="5" stroke-linecap="round" stroke-linejoin="round">
    <path d="M650 394 C673 365 715 371 728 401 C754 398 775 415 775 438 C775 463 751 475 725 468 L642 468 C615 468 596 454 599 430 C601 407 622 392 650 394 Z"/>
    <path d="M670 394 C684 384 706 387 718 404" fill="none"/>
  </g>
</svg>