<svg xmlns="http://www.w3.org/2000/svg" viewBox="0 0 800 600" role="img" aria-label="A happy red cat sits in the sun">
  <rect width="800" height="600" fill="#fff4d8"/>
  <circle cx="640" cy="115" r="62" fill="#ffd86b"/>
  <g stroke="#ffd86b" stroke-width="16" stroke-linecap="round">
    <line x1="640" y1="28" x2="640" y2="6"/>
    <line x1="640" y1="224" x2="640" y2="202"/>
    <line x1="553" y1="115" x2="531" y2="115"/>
    <line x1="749" y1="115" x2="727" y2="115"/>
    <line x1="579" y1="54" x2="563" y2="38"/>
    <line x1="701" y1="176" x2="717" y2="192"/>
    <line x1="701" y1="54" x2="717" y2="38"/>
    <line x1="579" y1="176" x2="563" y2="192"/>
  </g>
  <path d="M0 430 Q180 385 400 430 T800 430 V600 H0 Z" fill="#bfe8a8"/>
  <ellipse cx="400" cy="495" rx="210" ry="42" fill="#8bd28b"/>
  <rect x="280" y="315" width="240" height="185" rx="85" fill="#ee6b5f"/>
  <circle cx="400" cy="265" r="115" fill="#f07163"/>
  <path d="M310 210 L345 125 L385 215 Z" fill="#f07163"/>
  <path d="M490 210 L455 125 L415 215 Z" fill="#f07163"/>
  <path d="M335 198 L348 160 L368 202 Z" fill="#ffb0a7"/>
  <path d="M465 198 L452 160 L432 202 Z" fill="#ffb0a7"/>
  <circle cx="360" cy="260" r="14" fill="#4b2d2a"/>
  <circle cx="440" cy="260" r="14" fill="#4b2d2a"/>
  <circle cx="400" cy="300" r="10" fill="#4b2d2a"/>
  <path d="M380 325 Q400 343 420 325" fill="none" stroke="#4b2d2a" stroke-width="8" stroke-linecap="round"/>
  <path d="M292 410 Q220 430 245 485 Q270 540 345 485" fill="none" stroke="#ee6b5f" stroke-width="34" stroke-linecap="round"/>
  <circle cx="330" cy="365" r="16" fill="#ffb0a7" opacity="0.65"/>
  <circle cx="470" cy="365" r="16" fill="#ffb0a7" opacity="0.65"/>
</svg>
