<svg xmlns="http://www.w3.org/2000/svg" viewBox="0 0 800 600" role="img" aria-label="A happy red cat waves goodbye">
  <rect width="800" height="600" fill="#fff4d8"/>
  <circle cx="640" cy="115" r="60" fill="#ffd86b"/>
  <path d="M0 430 Q180 385 400 430 T800 430 V600 H0 Z" fill="#bfe8a8"/>
  <ellipse cx="400" cy="505" rx="220" ry="44" fill="#8bd28b"/>
  <rect x="290" y="315" width="220" height="180" rx="85" fill="#ee6b5f"/>
  <circle cx="400" cy="265" r="112" fill="#f07163"/>
  <path d="M312 210 L345 128 L385 215 Z" fill="#f07163"/>
  <path d="M488 210 L455 128 L415 215 Z" fill="#f07163"/>
  <path d="M337 198 L349 162 L368 202 Z" fill="#ffb0a7"/>
  <path d="M463 198 L451 162 L432 202 Z" fill="#ffb0a7"/>
  <circle cx="360" cy="260" r="14" fill="#4b2d2a"/>
  <circle cx="440" cy="260" r="14" fill="#4b2d2a"/>
  <circle cx="400" cy="300" r="10" fill="#4b2d2a"/>
  <path d="M376 325 Q400 348 424 325" fill="none" stroke="#4b2d2a" stroke-width="8" stroke-linecap="round"/>
  <path d="M300 405 Q245 360 220 305" fill="none" stroke="#ee6b5f" stroke-width="34" stroke-linecap="round"/>
  <circle cx="210" cy="285" r="30" fill="#ee6b5f"/>
  <g stroke="#4b2d2a" stroke-width="7" stroke-linecap="round">
    <path d="M188 270 L170 250"/>
    <path d="M202 262 L195 235"/>
    <path d="M220 264 L232 238"/>
  </g>
  <path d="M505 410 Q580 430 560 485" fill="none" stroke="#ee6b5f" stroke-width="34" stroke-linecap="round"/>
  <circle cx="332" cy="365" r="16" fill="#ffb0a7" opacity="0.65"/>
  <circle cx="468" cy="365" r="16" fill="#ffb0a7" opacity="0.65"/>
  <circle cx="150" cy="130" r="18" fill="#ffffff" opacity="0.85"/>
  <circle cx="190" cy="110" r="26" fill="#ffffff" opacity="0.85"/>
  <circle cx="230" cy="130" r="18" fill="#ffffff" opacity="0.85"/>
</svg>
