<svg xmlns="http://www.w3.org/2000/svg" viewBox="0 0 800 600" role="img" aria-label="A happy red cat trots to a mat">
  <rect width="800" height="600" fill="#eaf8ff"/>
  <circle cx="650" cy="105" r="58" fill="#ffd86b"/>
  <path d="M0 430 Q190 390 400 430 T800 430 V600 H0 Z" fill="#bfe8a8"/>
  <ellipse cx="535" cy="505" rx="190" ry="46" fill="#ffd2c5"/>
  <path d="M390 505 Q535 455 680 505" fill="none" stroke="#f3a08c" stroke-width="10" stroke-linecap="round"/>
  <path d="M430 520 Q535 485 640 520" fill="none" stroke="#f3a08c" stroke-width="8" stroke-linecap="round"/>
  <rect x="245" y="300" width="250" height="170" rx="80" fill="#ee6b5f"/>
  <circle cx="370" cy="245" r="105" fill="#f07163"/>
  <path d="M290 205 L325 125 L362 210 Z" fill="#f07163"/>
  <path d="M450 205 L415 125 L378 210 Z" fill="#f07163"/>
  <path d="M318 196 L330 160 L350 200 Z" fill="#ffb0a7"/>
  <path d="M422 196 L410 160 L390 200 Z" fill="#ffb0a7"/>
  <circle cx="338" cy="245" r="13" fill="#4b2d2a"/>
  <circle cx="412" cy="245" r="13" fill="#4b2d2a"/>
  <circle cx="375" cy="282" r="9" fill="#4b2d2a"/>
  <path d="M356 306 Q375 322 394 306" fill="none" stroke="#4b2d2a" stroke-width="8" stroke-linecap="round"/>
  <path d="M250 420 Q180 425 190 485" fill="none" stroke="#ee6b5f" stroke-width="32" stroke-linecap="round"/>
  <path d="M485 410 Q560 420 570 470" fill="none" stroke="#ee6b5f" stroke-width="32" stroke-linecap="round"/>
  <circle cx="315" cy="352" r="15" fill="#ffb0a7" opacity="0.65"/>
  <circle cx="445" cy="352" r="15" fill="#ffb0a7" opacity="0.65"/>
</svg>
