<svg xmlns="http://www.w3.org/2000/svg" viewBox="0 0 800 600" role="img" aria-label="A happy red cat naps on a mat">
  <rect width="800" height="600" fill="#f4f0ff"/>
  <circle cx="645" cy="105" r="54" fill="#ffe28a"/>
  <path d="M0 430 Q190 392 400 430 T800 430 V600 H0 Z" fill="#c8eeb8"/>
  <ellipse cx="400" cy="505" rx="240" ry="56" fill="#ffd2c5"/>
  <path d="M220 505 Q400 450 580 505" fill="none" stroke="#f3a08c" stroke-width="10" stroke-linecap="round"/>
  <ellipse cx="400" cy="405" rx="165" ry="95" fill="#ee6b5f"/>
  <circle cx="330" cy="330" r="92" fill="#f07163"/>
  <path d="M260 300 L292 230 L325 305 Z" fill="#f07163"/>
  <path d="M400 300 L368 230 L335 305 Z" fill="#f07163"/>
  <path d="M287 292 L298 260 L316 296 Z" fill="#ffb0a7"/>
  <path d="M373 292 L362 260 L344 296 Z" fill="#ffb0a7"/>
  <path d="M300 326 Q315 340 330 326" fill="none" stroke="#4b2d2a" stroke-width="8" stroke-linecap="round"/>
  <path d="M360 326 Q375 340 390 326" fill="none" stroke="#4b2d2a" stroke-width="8" stroke-linecap="round"/>
  <circle cx="330" cy="360" r="9" fill="#4b2d2a"/>
  <path d="M312 382 Q330 396 348 382" fill="none" stroke="#4b2d2a" stroke-width="7" stroke-linecap="round"/>
  <path d="M540 395 Q630 375 640 460" fill="none" stroke="#ee6b5f" stroke-width="32" stroke-linecap="round"/>
  <circle cx="285" cy="372" r="13" fill="#ffb0a7" opacity="0.65"/>
  <circle cx="385" cy="372" r="13" fill="#ffb0a7" opacity="0.65"/>
</svg>
